# xmcd
#
# Track frame offsets:
#   150
#   15049
#   27707
#   40847
#   53908
#   70269
#   82694
#   97366
#   111760
#   123009
#   133588
#   150333
#   166692
#   184373
#   196807
#   210478
#   223904
#   235815
#   250765
#   263664
#   277397
#   294116
#   307252
#   320029
#
# Disc length: 4466 seconds
#
# Revision: 0
# Processed by: cddbd v1.5.1PL0 Copyright (c) Steve Scherf et al.
# Submitted via: uFREEDB ActiveX Control 1.5
#
DISCID=55117018
DTITLE=Tião Carreiro e Pardinho - Moda de Viola
DYEAR=1900
DGENRE=Country
TTITLE0=A Vaca foi Pro Brejo
TTITLE1=Pretinho Aleijado
TTITLE2=Pagode em Brasilia
TTITLE3=Rei do Gado
TTITLE4=Ferreirinha
TTITLE5=Cavalo Enxuto
TTITLE6=Boi Soberano
TTITLE7=Heroi Sem Medalha
TTITLE8=Casinha na Serra
TTITLE9=Falou e Disse
TTITLE10=Teu Nome Tem Sete Letras
TTITLE11=A Mão do Tempo
TTITLE12=A Coisa Ta Feia
TTITLE13=Rei Sem Coroa
TTITLE14=O Patrão e o Empregado
TTITLE15=O Mineiro e o Italiano
TTITLE16=Rancho dos Ipês
TTITLE17=Travessia do Araguaia
TTITLE18=Boiadeiro Punho de Aço
TTITLE19=Amargurado
TTITLE20=Negrinho Parafuso
TTITLE21=Boi Sete de Ouro
TTITLE22=Tenente Mineirinho
TTITLE23=Arreio de Prata
EXTD=
EXTT0=
EXTT1=
EXTT2=
EXTT3=
EXTT4=
EXTT5=
EXTT6=
EXTT7=
EXTT8=
EXTT9=
EXTT10=
EXTT11=
EXTT12=
EXTT13=
EXTT14=
EXTT15=
EXTT16=
EXTT17=
EXTT18=
EXTT19=
EXTT20=
EXTT21=
EXTT22=
EXTT23=
PLAYORDER=
